<mxfile host="app.diagrams.net" modified="2023-09-15T02:57:42.211Z" agent="Mozilla/5.0 (Macintosh; Intel Mac OS X 10_15_7) AppleWebKit/537.36 (KHTML, like Gecko) Chrome/116.0.0.0 Safari/537.36" version="21.7.5" etag="kasJ0OuPqdMuc6bBjAnx" type="github">
  <diagram name="第 1 页" id="iorWuoAWOs5aZLmsus5p">
    <mxGraphModel>
      <root>
        <mxCell id="0" />
        <mxCell id="1" parent="0" />
      </root>
    </mxGraphModel>
  </diagram>
</mxfile>
